<?xml version="1.0" encoding="iso-8859-1"?>
<!-- Generator: Adobe Illustrator 19.0.0, SVG Export Plug-In . SVG Version: 6.00 Build 0)  -->
<svg version="1.1" id="Capa_1" xmlns="http://www.w3.org/2000/svg" xmlns:xlink="http://www.w3.org/1999/xlink" x="0px" y="0px"
	 viewBox="0 0 512 512" style="enable-background:new 0 0 512 512; fill: #ff4545;" xml:space="preserve">
<g>
	<g>
		<path d="M256,0C114.841,0,0,114.841,0,255.999C0,397.158,114.841,512,256,512s256-114.842,256-256.001
			C512,114.841,397.159,0,256,0z M256,492C125.87,492,20,386.131,20,255.999C20,125.869,125.87,20,256,20s236,105.869,236,235.999
			C492,386.131,386.131,492,256,492z"/>
	</g>
</g>
<g>
	<g>
		<path d="M394.097,163.885c-3.064-4.595-9.272-5.836-13.869-2.771c-4.594,3.064-5.835,9.273-2.77,13.868
			C393.514,199.053,402,227.067,402,256c0,41.766-17.932,81.603-49.198,109.295c-4.134,3.662-4.518,9.982-0.855,14.117
			c1.976,2.23,4.726,3.369,7.49,3.369c2.357,0,4.723-0.828,6.626-2.514C401.612,348.78,422,303.487,422,256
			C422,223.105,412.352,191.251,394.097,163.885z"/>
	</g>
</g>
<g>
	<g>
		<path d="M376.928,252.073c-0.017-0.529-0.043-1.057-0.067-1.585c-0.033-0.717-0.072-1.434-0.118-2.15
			c-0.045-0.722-0.093-1.444-0.151-2.165c-0.021-0.261-0.049-0.521-0.072-0.781c-1.047-11.994-3.868-23.695-8.362-34.783
			c-0.057-0.142-0.115-0.284-0.173-0.425c-0.371-0.905-0.748-1.808-1.142-2.705c-0.132-0.303-0.272-0.602-0.407-0.903
			c-2.748-6.129-6-12.06-9.775-17.719c-3.064-4.595-9.273-5.835-13.868-2.77c-4.594,3.066-5.835,9.275-2.77,13.868
			c2.743,4.112,5.163,8.392,7.258,12.805c0.014,0.028,0.023,0.058,0.037,0.088c0.315,0.666,0.616,1.338,0.916,2.011
			c0.092,0.206,0.188,0.411,0.278,0.618c0.335,0.767,0.66,1.539,0.977,2.314c0.039,0.097,0.079,0.193,0.118,0.29
			c3.74,9.258,6.105,19.109,6.992,29.063c0.019,0.218,0.043,0.436,0.06,0.655c0.05,0.602,0.088,1.205,0.127,1.807
			c0.038,0.597,0.072,1.195,0.099,1.794c0.02,0.44,0.041,0.881,0.056,1.321c0.035,1.091,0.06,2.184,0.06,3.279
			c0,16.462-4.083,32.849-11.806,47.387c-2.591,4.877-0.738,10.932,4.139,13.523c1.496,0.795,3.101,1.171,4.683,1.171
			c3.58,0,7.043-1.929,8.84-5.311C372.109,295.353,377,275.723,377,256C377,254.691,376.971,253.382,376.928,252.073z"/>
	</g>
</g>
<g>
	<g>
		<path d="M256,186.526c-38.308,0-69.473,31.165-69.473,69.473s31.166,69.474,69.473,69.474s69.473-31.166,69.473-69.474
			C325.473,217.691,294.308,186.526,256,186.526z M256,305.473c-27.28,0-49.473-22.193-49.473-49.474
			c0-27.279,22.193-49.473,49.473-49.473c27.28,0,49.473,22.193,49.473,49.473C305.474,283.279,283.28,305.473,256,305.473z"/>
	</g>
</g>
<g>
	<g>
		<path d="M256,245.999c-5.508,0-10,4.492-10,10s4.492,10,10,10s10-4.492,10-10C266,250.492,261.508,245.999,256,245.999z"/>
	</g>
</g>
<g>
	<g>
		<path d="M168.797,74.624c-2.638-4.854-8.711-6.648-13.562-4.011C87.24,107.573,45,178.609,45,256
			c0,37.714,10.136,74.813,29.312,107.286c1.866,3.159,5.198,4.917,8.62,4.917c1.729,0,3.479-0.449,5.076-1.392
			c4.755-2.808,6.334-8.939,3.526-13.695C74.175,323.721,65,290.139,65,256c0-70.056,38.236-134.357,99.787-167.814
			C169.639,85.548,171.434,79.477,168.797,74.624z"/>
	</g>
</g>
<g>
	<g>
		<path d="M154.964,136.719c-3.832-3.979-10.164-4.095-14.14-0.263c-32.3,31.121-50.825,74.692-50.825,119.544
			c0,29.67,7.974,58.856,23.061,84.405c1.866,3.159,5.198,4.917,8.62,4.917c1.729,0,3.479-0.449,5.075-1.391
			c4.756-2.808,6.335-8.94,3.527-13.696C117.014,307.765,110,282.094,110,256c0-39.447,16.293-77.77,44.701-105.141
			C158.678,147.027,158.796,140.697,154.964,136.719z"/>
	</g>
</g>
<g>
	<g>
		<path d="M181.028,173.535c-4.066-3.738-10.392-3.471-14.129,0.598c-20.571,22.388-31.9,51.462-31.9,81.867
			c0,21.626,5.813,42.901,16.809,61.524c1.866,3.159,5.199,4.917,8.62,4.917c1.728,0,3.479-0.448,5.075-1.391
			c4.756-2.809,6.335-8.941,3.526-13.696c-9.179-15.545-14.031-33.303-14.031-51.354c0-25.379,9.457-49.648,26.628-68.336
			C185.362,183.598,185.095,177.271,181.028,173.535z"/>
	</g>
</g>
<g>
	<g>
		<path d="M431.022,138.15c-3.085-4.582-9.298-5.794-13.88-2.71c-4.581,3.085-5.794,9.299-2.71,13.88
			C435.738,180.963,447,217.852,447,256c0,69.452-37.749,133.487-98.516,167.115c-4.832,2.675-6.582,8.76-3.907,13.592
			c1.825,3.298,5.238,5.16,8.759,5.16c1.637,0,3.298-0.403,4.833-1.252C425.298,403.465,467,332.725,467,256
			C467,213.857,454.559,173.105,431.022,138.15z"/>
	</g>
</g>
<g>
	<g>
		<path d="M147.735,353.954l-0.124-0.139c-3.667-4.129-9.988-4.505-14.117-0.837c-4.129,3.668-4.504,9.988-0.837,14.118l0.224,0.25
			c1.975,2.189,4.697,3.304,7.431,3.304c2.386,0,4.781-0.849,6.692-2.572C151.106,364.38,151.434,358.057,147.735,353.954z"/>
	</g>
</g>
<g>
</g>
<g>
</g>
<g>
</g>
<g>
</g>
<g>
</g>
<g>
</g>
<g>
</g>
<g>
</g>
<g>
</g>
<g>
</g>
<g>
</g>
<g>
</g>
<g>
</g>
<g>
</g>
<g>
</g>
</svg>
